<?xml version="1.0" encoding="UTF-8"?>
<!DOCTYPE svg PUBLIC "-//W3C//DTD SVG 1.1//EN" "http://www.w3.org/Graphics/SVG/1.1/DTD/svg11.dtd">
<!-- Creator: CorelDRAW -->
<svg xmlns="http://www.w3.org/2000/svg" xml:space="preserve" width="3.77289in" height="4.9465in" version="1.1" style="shape-rendering:geometricPrecision; text-rendering:geometricPrecision; image-rendering:optimizeQuality; fill-rule:evenodd; clip-rule:evenodd"
viewBox="0 0 3557.58 4664.21"
 xmlns:xlink="http://www.w3.org/1999/xlink">
 <defs>
  <style type="text/css">
   <![CDATA[
    .fil3 {fill:none;fill-rule:nonzero}
    .fil4 {fill:#23C9FF}
    .fil2 {fill:#81DFFF}
    .fil1 {fill:white}
    .fil0 {fill:#23C9FF;fill-rule:nonzero}
   ]]>
  </style>
    <clipPath id="id0" style="clip-rule:nonzero">
     <path d="M953.24 1083.15c64.19,220.09 128.38,467.67 192.57,742.78 32.1,160.48 80.25,401.2 144.44,722.15 0,18.35 2.29,32.1 6.87,41.27 36.68,187.99 64.19,332.42 82.54,433.29 77.94,-123.8 153.6,-256.76 226.96,-398.9 298.03,-536.46 511.24,-1001.84 639.61,-1396.15 45.85,-128.39 128.39,-222.38 247.6,-281.98 119.22,-59.61 241.87,-67.63 367.96,-24.07 126.09,43.56 218.93,124.95 278.54,244.16 59.61,119.21 68.78,243.01 27.51,371.39 -146.73,444.75 -382.85,962.87 -708.4,1554.35 -357.63,651.08 -683.17,1123.35 -976.62,1416.79 -59.61,59.61 -128.38,103.17 -206.32,130.68 -123.8,41.26 -245.31,32.09 -364.52,-27.51 -77.94,-36.68 -142.13,-89.42 -192.57,-158.19 -27.51,-36.68 -48.15,-73.36 -61.9,-110.04 -13.75,-36.68 -27.51,-77.94 -41.26,-123.79 0,-13.75 -4.59,-36.68 -13.75,-68.77l0 -6.88c-36.68,-114.63 -68.78,-275.11 -96.29,-481.43 0,-9.17 -2.29,-25.22 -6.88,-48.15 -13.75,-110.04 -25.22,-187.99 -34.38,-233.84 -32.1,-142.13 -73.36,-346.17 -123.8,-612.11 0,-4.58 -2.29,-16.05 -6.88,-34.39 -59.61,-311.79 -105.46,-545.62 -137.55,-701.52 -55.02,-247.6 -112.33,-467.67 -171.94,-660.25 -41.26,-128.38 -30.95,-251.03 30.95,-367.95 61.9,-116.92 157.03,-196.01 285.42,-237.28 128.38,-41.27 252.18,-30.95 371.4,30.95 119.21,61.9 199.44,157.04 240.71,285.42z"/>
    </clipPath>
      <mask id="id1">
  <linearGradient id="id2" gradientUnits="userSpaceOnUse" x1="1816.67" y1="2183.76" x2="-329.61" y2="2716.73">
   <stop offset="0" style="stop-opacity:1; stop-color:white"/>
   <stop offset="1" style="stop-opacity:0; stop-color:white"/>
  </linearGradient>
       <rect style="fill:url(#id2)" x="-965.31" y="242.95" width="2164.49" height="5033.98"/>
      </mask>
      <mask id="id3">
  <linearGradient id="id4" gradientUnits="userSpaceOnUse" x1="1623.86" y1="4015.09" x2="3366.81" y2="140.27">
   <stop offset="0" style="stop-opacity:1; stop-color:white"/>
   <stop offset="1" style="stop-opacity:0; stop-color:white"/>
  </linearGradient>
       <rect style="fill:url(#id4)" x="1897.55" y="169.44" width="1849.04" height="2452.11"/>
      </mask>
      <mask id="id5">
  <linearGradient id="id6" gradientUnits="userSpaceOnUse" x1="1932.02" y1="3088.38" x2="3121.94" y2="443.04">
   <stop offset="0" style="stop-opacity:1; stop-color:white"/>
   <stop offset="1" style="stop-opacity:0; stop-color:white"/>
  </linearGradient>
       <rect style="fill:url(#id6)" x="2118.88" y="462.95" width="1262.33" height="1674.05"/>
      </mask>
 </defs>
 <g id="Layer_x0020_1">
  <metadata id="CorelCorpID_0Corel-Layer"/>
  <g id="_105553715540032">
   <path class="fil0" d="M953.24 1083.15c64.19,220.09 128.38,467.67 192.57,742.78 32.1,160.48 80.25,401.2 144.44,722.15 0,18.35 2.29,32.1 6.87,41.27 36.68,187.99 64.19,332.42 82.54,433.29 77.94,-123.8 153.6,-256.76 226.96,-398.9 298.03,-536.46 511.24,-1001.84 639.61,-1396.15 45.85,-128.39 128.39,-222.38 247.6,-281.98 119.22,-59.61 241.87,-67.63 367.96,-24.07 126.09,43.56 218.93,124.95 278.54,244.16 59.61,119.21 68.78,243.01 27.51,371.39 -146.73,444.75 -382.85,962.87 -708.4,1554.35 -357.63,651.08 -683.17,1123.35 -976.62,1416.79 -59.61,59.61 -128.38,103.17 -206.32,130.68 -123.8,41.26 -245.31,32.09 -364.52,-27.51 -77.94,-36.68 -142.13,-89.42 -192.57,-158.19 -27.51,-36.68 -48.15,-73.36 -61.9,-110.04 -13.75,-36.68 -27.51,-77.94 -41.26,-123.79 0,-13.75 -4.59,-36.68 -13.75,-68.77l0 -6.88c-36.68,-114.63 -68.78,-275.11 -96.29,-481.43 0,-9.17 -2.29,-25.22 -6.88,-48.15 -13.75,-110.04 -25.22,-187.99 -34.38,-233.84 -32.1,-142.13 -73.36,-346.17 -123.8,-612.11 0,-4.58 -2.29,-16.05 -6.88,-34.39 -59.61,-311.79 -105.46,-545.62 -137.55,-701.52 -55.02,-247.6 -112.33,-467.67 -171.94,-660.25 -41.26,-128.38 -30.95,-251.03 30.95,-367.95 61.9,-116.92 157.03,-196.01 285.42,-237.28 128.38,-41.27 252.18,-30.95 371.4,30.95 119.21,61.9 199.44,157.04 240.71,285.42z"/>
   <g style="clip-path:url(#id0)">
    <g>
     <path id="1" class="fil1" style="mask:url(#id1)" d="M955.4 2531.05c-377.88,-1384.24 -1059.6,-2403.92 -1522.68,-2277.5 -463.07,126.41 -532.12,1351.04 -154.24,2735.28 377.88,1384.24 1059.6,2403.92 1522.68,2277.5 463.07,-126.41 532.12,-1351.04 154.24,-2735.28z"/>
     <path class="fil2" style="mask:url(#id3)" d="M3458.85 305.6c-370.16,-309.83 -955.34,-73.04 -1307.02,528.89 -351.69,601.93 -336.71,1341.05 33.45,1650.88 370.16,309.83 955.34,73.04 1307.03,-528.89 351.69,-601.93 336.71,-1341.05 -33.46,-1650.88z"/>
     <path class="fil2" style="mask:url(#id5)" d="M3184.78 555.91c-252.71,-211.52 -652.21,-49.86 -892.31,361.08 -240.1,410.94 -229.87,915.54 22.84,1127.06 252.71,211.52 652.21,49.86 892.31,-361.07 240.1,-410.94 229.87,-915.54 -22.84,-1127.06z"/>
    </g>
   </g>
   <path class="fil3" d="M953.24 1083.15c64.19,220.09 128.38,467.67 192.57,742.78 32.1,160.48 80.25,401.2 144.44,722.15 0,18.35 2.29,32.1 6.87,41.27 36.68,187.99 64.19,332.42 82.54,433.29 77.94,-123.8 153.6,-256.76 226.96,-398.9 298.03,-536.46 511.24,-1001.84 639.61,-1396.15 45.85,-128.39 128.39,-222.38 247.6,-281.98 119.22,-59.61 241.87,-67.63 367.96,-24.07 126.09,43.56 218.93,124.95 278.54,244.16 59.61,119.21 68.78,243.01 27.51,371.39 -146.73,444.75 -382.85,962.87 -708.4,1554.35 -357.63,651.08 -683.17,1123.35 -976.62,1416.79 -59.61,59.61 -128.38,103.17 -206.32,130.68 -123.8,41.26 -245.31,32.09 -364.52,-27.51 -77.94,-36.68 -142.13,-89.42 -192.57,-158.19 -27.51,-36.68 -48.15,-73.36 -61.9,-110.04 -13.75,-36.68 -27.51,-77.94 -41.26,-123.79 0,-13.75 -4.59,-36.68 -13.75,-68.77l0 -6.88c-36.68,-114.63 -68.78,-275.11 -96.29,-481.43 0,-9.17 -2.29,-25.22 -6.88,-48.15 -13.75,-110.04 -25.22,-187.99 -34.38,-233.84 -32.1,-142.13 -73.36,-346.17 -123.8,-612.11 0,-4.58 -2.29,-16.05 -6.88,-34.39 -59.61,-311.79 -105.46,-545.62 -137.55,-701.52 -55.02,-247.6 -112.33,-467.67 -171.94,-660.25 -41.26,-128.38 -30.95,-251.03 30.95,-367.95 61.9,-116.92 157.03,-196.01 285.42,-237.28 128.38,-41.27 252.18,-30.95 371.4,30.95 119.21,61.9 199.44,157.04 240.71,285.42z"/>
   <ellipse class="fil4" cx="3193.95" cy="370.74" rx="363.62" ry="370.75"/>
  </g>
 </g>
</svg>
